<svg xmlns="http://www.w3.org/2000/svg" viewBox="0 0 880 130" width="880" height="130" font-family="monospace">
  <title>Couleur d'une étoile selon sa température (fonction blackbodyRGB du jeu)</title>
  <rect width="880" height="130" fill="#0b1220"/>
  <rect x="40.00" y="34" width="4.24" height="40" fill="rgb(255,72,5)"/>
  <rect x="43.64" y="34" width="4.24" height="40" fill="rgb(255,74,6)"/>
  <rect x="47.27" y="34" width="4.24" height="40" fill="rgb(255,76,7)"/>
  <rect x="50.91" y="34" width="4.24" height="40" fill="rgb(255,78,7)"/>
  <rect x="54.55" y="34" width="4.24" height="40" fill="rgb(255,80,8)"/>
  <rect x="58.18" y="34" width="4.24" height="40" fill="rgb(255,82,9)"/>
  <rect x="61.82" y="34" width="4.24" height="40" fill="rgb(255,84,10)"/>
  <rect x="65.45" y="34" width="4.24" height="40" fill="rgb(255,86,11)"/>
  <rect x="69.09" y="34" width="4.24" height="40" fill="rgb(255,87,12)"/>
  <rect x="72.73" y="34" width="4.24" height="40" fill="rgb(255,89,14)"/>
  <rect x="76.36" y="34" width="4.24" height="40" fill="rgb(255,91,15)"/>
  <rect x="80.00" y="34" width="4.24" height="40" fill="rgb(255,93,16)"/>
  <rect x="83.64" y="34" width="4.24" height="40" fill="rgb(255,95,17)"/>
  <rect x="87.27" y="34" width="4.24" height="40" fill="rgb(255,97,19)"/>
  <rect x="90.91" y="34" width="4.24" height="40" fill="rgb(255,99,20)"/>
  <rect x="94.55" y="34" width="4.24" height="40" fill="rgb(255,101,22)"/>
  <rect x="98.18" y="34" width="4.24" height="40" fill="rgb(255,103,23)"/>
  <rect x="101.82" y="34" width="4.24" height="40" fill="rgb(255,105,25)"/>
  <rect x="105.45" y="34" width="4.24" height="40" fill="rgb(255,107,26)"/>
  <rect x="109.09" y="34" width="4.24" height="40" fill="rgb(255,109,28)"/>
  <rect x="112.73" y="34" width="4.24" height="40" fill="rgb(255,111,30)"/>
  <rect x="116.36" y="34" width="4.24" height="40" fill="rgb(255,114,31)"/>
  <rect x="120.00" y="34" width="4.24" height="40" fill="rgb(255,116,33)"/>
  <rect x="123.64" y="34" width="4.24" height="40" fill="rgb(255,118,35)"/>
  <rect x="127.27" y="34" width="4.24" height="40" fill="rgb(255,120,37)"/>
  <rect x="130.91" y="34" width="4.24" height="40" fill="rgb(255,122,39)"/>
  <rect x="134.55" y="34" width="4.24" height="40" fill="rgb(255,124,41)"/>
  <rect x="138.18" y="34" width="4.24" height="40" fill="rgb(255,126,43)"/>
  <rect x="141.82" y="34" width="4.24" height="40" fill="rgb(255,128,46)"/>
  <rect x="145.45" y="34" width="4.24" height="40" fill="rgb(255,130,48)"/>
  <rect x="149.09" y="34" width="4.24" height="40" fill="rgb(255,132,50)"/>
  <rect x="152.73" y="34" width="4.24" height="40" fill="rgb(255,134,53)"/>
  <rect x="156.36" y="34" width="4.24" height="40" fill="rgb(255,137,55)"/>
  <rect x="160.00" y="34" width="4.24" height="40" fill="rgb(255,139,58)"/>
  <rect x="163.64" y="34" width="4.24" height="40" fill="rgb(255,141,60)"/>
  <rect x="167.27" y="34" width="4.24" height="40" fill="rgb(255,143,63)"/>
  <rect x="170.91" y="34" width="4.24" height="40" fill="rgb(255,145,66)"/>
  <rect x="174.55" y="34" width="4.24" height="40" fill="rgb(255,147,68)"/>
  <rect x="178.18" y="34" width="4.24" height="40" fill="rgb(255,150,71)"/>
  <rect x="181.82" y="34" width="4.24" height="40" fill="rgb(255,152,74)"/>
  <rect x="185.45" y="34" width="4.24" height="40" fill="rgb(255,154,77)"/>
  <rect x="189.09" y="34" width="4.24" height="40" fill="rgb(255,156,80)"/>
  <rect x="192.73" y="34" width="4.24" height="40" fill="rgb(255,158,84)"/>
  <rect x="196.36" y="34" width="4.24" height="40" fill="rgb(255,160,87)"/>
  <rect x="200.00" y="34" width="4.24" height="40" fill="rgb(255,163,90)"/>
  <rect x="203.64" y="34" width="4.24" height="40" fill="rgb(255,165,94)"/>
  <rect x="207.27" y="34" width="4.24" height="40" fill="rgb(255,167,97)"/>
  <rect x="210.91" y="34" width="4.24" height="40" fill="rgb(255,169,101)"/>
  <rect x="214.55" y="34" width="4.24" height="40" fill="rgb(255,172,104)"/>
  <rect x="218.18" y="34" width="4.24" height="40" fill="rgb(255,174,108)"/>
  <rect x="221.82" y="34" width="4.24" height="40" fill="rgb(255,176,112)"/>
  <rect x="225.45" y="34" width="4.24" height="40" fill="rgb(255,178,115)"/>
  <rect x="229.09" y="34" width="4.24" height="40" fill="rgb(255,181,119)"/>
  <rect x="232.73" y="34" width="4.24" height="40" fill="rgb(255,183,123)"/>
  <rect x="236.36" y="34" width="4.24" height="40" fill="rgb(255,185,127)"/>
  <rect x="240.00" y="34" width="4.24" height="40" fill="rgb(255,187,131)"/>
  <rect x="243.64" y="34" width="4.24" height="40" fill="rgb(255,189,135)"/>
  <rect x="247.27" y="34" width="4.24" height="40" fill="rgb(255,192,140)"/>
  <rect x="250.91" y="34" width="4.24" height="40" fill="rgb(255,194,144)"/>
  <rect x="254.55" y="34" width="4.24" height="40" fill="rgb(255,196,148)"/>
  <rect x="258.18" y="34" width="4.24" height="40" fill="rgb(255,198,153)"/>
  <rect x="261.82" y="34" width="4.24" height="40" fill="rgb(255,200,157)"/>
  <rect x="265.45" y="34" width="4.24" height="40" fill="rgb(255,203,161)"/>
  <rect x="269.09" y="34" width="4.24" height="40" fill="rgb(255,205,166)"/>
  <rect x="272.73" y="34" width="4.24" height="40" fill="rgb(255,207,171)"/>
  <rect x="276.36" y="34" width="4.24" height="40" fill="rgb(255,209,175)"/>
  <rect x="280.00" y="34" width="4.24" height="40" fill="rgb(255,211,180)"/>
  <rect x="283.64" y="34" width="4.24" height="40" fill="rgb(255,213,185)"/>
  <rect x="287.27" y="34" width="4.24" height="40" fill="rgb(255,215,189)"/>
  <rect x="290.91" y="34" width="4.24" height="40" fill="rgb(255,217,194)"/>
  <rect x="294.55" y="34" width="4.24" height="40" fill="rgb(255,220,199)"/>
  <rect x="298.18" y="34" width="4.24" height="40" fill="rgb(255,222,204)"/>
  <rect x="301.82" y="34" width="4.24" height="40" fill="rgb(255,224,209)"/>
  <rect x="305.45" y="34" width="4.24" height="40" fill="rgb(255,226,214)"/>
  <rect x="309.09" y="34" width="4.24" height="40" fill="rgb(255,228,219)"/>
  <rect x="312.73" y="34" width="4.24" height="40" fill="rgb(255,230,224)"/>
  <rect x="316.36" y="34" width="4.24" height="40" fill="rgb(255,232,229)"/>
  <rect x="320.00" y="34" width="4.24" height="40" fill="rgb(255,234,234)"/>
  <rect x="323.64" y="34" width="4.24" height="40" fill="rgb(255,236,240)"/>
  <rect x="327.27" y="34" width="4.24" height="40" fill="rgb(255,238,245)"/>
  <rect x="330.91" y="34" width="4.24" height="40" fill="rgb(255,239,250)"/>
  <rect x="334.55" y="34" width="4.24" height="40" fill="rgb(255,241,255)"/>
  <rect x="338.18" y="34" width="4.24" height="40" fill="rgb(250,238,255)"/>
  <rect x="341.82" y="34" width="4.24" height="40" fill="rgb(245,235,255)"/>
  <rect x="345.45" y="34" width="4.24" height="40" fill="rgb(240,232,255)"/>
  <rect x="349.09" y="34" width="4.24" height="40" fill="rgb(235,230,255)"/>
  <rect x="352.73" y="34" width="4.24" height="40" fill="rgb(231,227,255)"/>
  <rect x="356.36" y="34" width="4.24" height="40" fill="rgb(227,224,255)"/>
  <rect x="360.00" y="34" width="4.24" height="40" fill="rgb(222,222,255)"/>
  <rect x="363.64" y="34" width="4.24" height="40" fill="rgb(218,219,255)"/>
  <rect x="367.27" y="34" width="4.24" height="40" fill="rgb(214,217,255)"/>
  <rect x="370.91" y="34" width="4.24" height="40" fill="rgb(211,214,255)"/>
  <rect x="374.55" y="34" width="4.24" height="40" fill="rgb(207,212,255)"/>
  <rect x="378.18" y="34" width="4.24" height="40" fill="rgb(204,210,255)"/>
  <rect x="381.82" y="34" width="4.24" height="40" fill="rgb(200,208,255)"/>
  <rect x="385.45" y="34" width="4.24" height="40" fill="rgb(197,206,255)"/>
  <rect x="389.09" y="34" width="4.24" height="40" fill="rgb(194,203,255)"/>
  <rect x="392.73" y="34" width="4.24" height="40" fill="rgb(191,201,255)"/>
  <rect x="396.36" y="34" width="4.24" height="40" fill="rgb(188,199,255)"/>
  <rect x="400.00" y="34" width="4.24" height="40" fill="rgb(185,198,255)"/>
  <rect x="403.64" y="34" width="4.24" height="40" fill="rgb(182,196,255)"/>
  <rect x="407.27" y="34" width="4.24" height="40" fill="rgb(179,194,255)"/>
  <rect x="410.91" y="34" width="4.24" height="40" fill="rgb(177,192,255)"/>
  <rect x="414.55" y="34" width="4.24" height="40" fill="rgb(174,190,255)"/>
  <rect x="418.18" y="34" width="4.24" height="40" fill="rgb(172,189,255)"/>
  <rect x="421.82" y="34" width="4.24" height="40" fill="rgb(169,187,255)"/>
  <rect x="425.45" y="34" width="4.24" height="40" fill="rgb(167,185,255)"/>
  <rect x="429.09" y="34" width="4.24" height="40" fill="rgb(165,184,255)"/>
  <rect x="432.73" y="34" width="4.24" height="40" fill="rgb(163,182,255)"/>
  <rect x="436.36" y="34" width="4.24" height="40" fill="rgb(161,181,255)"/>
  <rect x="440.00" y="34" width="4.24" height="40" fill="rgb(159,179,255)"/>
  <rect x="443.64" y="34" width="4.24" height="40" fill="rgb(157,178,255)"/>
  <rect x="447.27" y="34" width="4.24" height="40" fill="rgb(155,177,255)"/>
  <rect x="450.91" y="34" width="4.24" height="40" fill="rgb(153,175,255)"/>
  <rect x="454.55" y="34" width="4.24" height="40" fill="rgb(151,174,255)"/>
  <rect x="458.18" y="34" width="4.24" height="40" fill="rgb(149,173,255)"/>
  <rect x="461.82" y="34" width="4.24" height="40" fill="rgb(148,171,255)"/>
  <rect x="465.45" y="34" width="4.24" height="40" fill="rgb(146,170,255)"/>
  <rect x="469.09" y="34" width="4.24" height="40" fill="rgb(144,169,255)"/>
  <rect x="472.73" y="34" width="4.24" height="40" fill="rgb(143,168,255)"/>
  <rect x="476.36" y="34" width="4.24" height="40" fill="rgb(141,167,255)"/>
  <rect x="480.00" y="34" width="4.24" height="40" fill="rgb(140,166,255)"/>
  <rect x="483.64" y="34" width="4.24" height="40" fill="rgb(138,165,255)"/>
  <rect x="487.27" y="34" width="4.24" height="40" fill="rgb(137,163,255)"/>
  <rect x="490.91" y="34" width="4.24" height="40" fill="rgb(135,162,255)"/>
  <rect x="494.55" y="34" width="4.24" height="40" fill="rgb(134,161,255)"/>
  <rect x="498.18" y="34" width="4.24" height="40" fill="rgb(133,160,255)"/>
  <rect x="501.82" y="34" width="4.24" height="40" fill="rgb(132,160,255)"/>
  <rect x="505.45" y="34" width="4.24" height="40" fill="rgb(130,159,255)"/>
  <rect x="509.09" y="34" width="4.24" height="40" fill="rgb(129,158,255)"/>
  <rect x="512.73" y="34" width="4.24" height="40" fill="rgb(128,157,255)"/>
  <rect x="516.36" y="34" width="4.24" height="40" fill="rgb(127,156,255)"/>
  <rect x="520.00" y="34" width="4.24" height="40" fill="rgb(126,155,255)"/>
  <rect x="523.64" y="34" width="4.24" height="40" fill="rgb(125,154,255)"/>
  <rect x="527.27" y="34" width="4.24" height="40" fill="rgb(124,153,255)"/>
  <rect x="530.91" y="34" width="4.24" height="40" fill="rgb(123,153,255)"/>
  <rect x="534.55" y="34" width="4.24" height="40" fill="rgb(122,152,255)"/>
  <rect x="538.18" y="34" width="4.24" height="40" fill="rgb(121,151,255)"/>
  <rect x="541.82" y="34" width="4.24" height="40" fill="rgb(120,150,255)"/>
  <rect x="545.45" y="34" width="4.24" height="40" fill="rgb(119,150,255)"/>
  <rect x="549.09" y="34" width="4.24" height="40" fill="rgb(118,149,255)"/>
  <rect x="552.73" y="34" width="4.24" height="40" fill="rgb(117,148,255)"/>
  <rect x="556.36" y="34" width="4.24" height="40" fill="rgb(116,147,255)"/>
  <rect x="560.00" y="34" width="4.24" height="40" fill="rgb(115,147,255)"/>
  <rect x="563.64" y="34" width="4.24" height="40" fill="rgb(115,146,255)"/>
  <rect x="567.27" y="34" width="4.24" height="40" fill="rgb(114,145,255)"/>
  <rect x="570.91" y="34" width="4.24" height="40" fill="rgb(113,145,255)"/>
  <rect x="574.55" y="34" width="4.24" height="40" fill="rgb(112,144,255)"/>
  <rect x="578.18" y="34" width="4.24" height="40" fill="rgb(112,144,255)"/>
  <rect x="581.82" y="34" width="4.24" height="40" fill="rgb(111,143,255)"/>
  <rect x="585.45" y="34" width="4.24" height="40" fill="rgb(110,142,255)"/>
  <rect x="589.09" y="34" width="4.24" height="40" fill="rgb(109,142,255)"/>
  <rect x="592.73" y="34" width="4.24" height="40" fill="rgb(109,141,255)"/>
  <rect x="596.36" y="34" width="4.24" height="40" fill="rgb(108,141,255)"/>
  <rect x="600.00" y="34" width="4.24" height="40" fill="rgb(108,140,255)"/>
  <rect x="603.64" y="34" width="4.24" height="40" fill="rgb(107,140,255)"/>
  <rect x="607.27" y="34" width="4.24" height="40" fill="rgb(106,139,255)"/>
  <rect x="610.91" y="34" width="4.24" height="40" fill="rgb(106,139,255)"/>
  <rect x="614.55" y="34" width="4.24" height="40" fill="rgb(105,138,255)"/>
  <rect x="618.18" y="34" width="4.24" height="40" fill="rgb(105,138,255)"/>
  <rect x="621.82" y="34" width="4.24" height="40" fill="rgb(104,137,255)"/>
  <rect x="625.45" y="34" width="4.24" height="40" fill="rgb(103,137,255)"/>
  <rect x="629.09" y="34" width="4.24" height="40" fill="rgb(103,136,255)"/>
  <rect x="632.73" y="34" width="4.24" height="40" fill="rgb(102,136,255)"/>
  <rect x="636.36" y="34" width="4.24" height="40" fill="rgb(102,136,255)"/>
  <rect x="640.00" y="34" width="4.24" height="40" fill="rgb(101,135,255)"/>
  <rect x="643.64" y="34" width="4.24" height="40" fill="rgb(101,135,255)"/>
  <rect x="647.27" y="34" width="4.24" height="40" fill="rgb(100,134,255)"/>
  <rect x="650.91" y="34" width="4.24" height="40" fill="rgb(100,134,255)"/>
  <rect x="654.55" y="34" width="4.24" height="40" fill="rgb(100,134,255)"/>
  <rect x="658.18" y="34" width="4.24" height="40" fill="rgb(99,133,255)"/>
  <rect x="661.82" y="34" width="4.24" height="40" fill="rgb(99,133,255)"/>
  <rect x="665.45" y="34" width="4.24" height="40" fill="rgb(98,132,255)"/>
  <rect x="669.09" y="34" width="4.24" height="40" fill="rgb(98,132,255)"/>
  <rect x="672.73" y="34" width="4.24" height="40" fill="rgb(97,132,255)"/>
  <rect x="676.36" y="34" width="4.24" height="40" fill="rgb(97,131,255)"/>
  <rect x="680.00" y="34" width="4.24" height="40" fill="rgb(97,131,255)"/>
  <rect x="683.64" y="34" width="4.24" height="40" fill="rgb(96,131,255)"/>
  <rect x="687.27" y="34" width="4.24" height="40" fill="rgb(96,130,255)"/>
  <rect x="690.91" y="34" width="4.24" height="40" fill="rgb(96,130,255)"/>
  <rect x="694.55" y="34" width="4.24" height="40" fill="rgb(95,130,255)"/>
  <rect x="698.18" y="34" width="4.24" height="40" fill="rgb(95,130,255)"/>
  <rect x="701.82" y="34" width="4.24" height="40" fill="rgb(95,129,255)"/>
  <rect x="705.45" y="34" width="4.24" height="40" fill="rgb(94,129,255)"/>
  <rect x="709.09" y="34" width="4.24" height="40" fill="rgb(94,129,255)"/>
  <rect x="712.73" y="34" width="4.24" height="40" fill="rgb(94,128,255)"/>
  <rect x="716.36" y="34" width="4.24" height="40" fill="rgb(93,128,255)"/>
  <rect x="720.00" y="34" width="4.24" height="40" fill="rgb(93,128,255)"/>
  <rect x="723.64" y="34" width="4.24" height="40" fill="rgb(93,128,255)"/>
  <rect x="727.27" y="34" width="4.24" height="40" fill="rgb(92,127,255)"/>
  <rect x="730.91" y="34" width="4.24" height="40" fill="rgb(92,127,255)"/>
  <rect x="734.55" y="34" width="4.24" height="40" fill="rgb(92,127,255)"/>
  <rect x="738.18" y="34" width="4.24" height="40" fill="rgb(92,127,255)"/>
  <rect x="741.82" y="34" width="4.24" height="40" fill="rgb(91,126,255)"/>
  <rect x="745.45" y="34" width="4.24" height="40" fill="rgb(91,126,255)"/>
  <rect x="749.09" y="34" width="4.24" height="40" fill="rgb(91,126,255)"/>
  <rect x="752.73" y="34" width="4.24" height="40" fill="rgb(91,126,255)"/>
  <rect x="756.36" y="34" width="4.24" height="40" fill="rgb(90,125,255)"/>
  <rect x="760.00" y="34" width="4.24" height="40" fill="rgb(90,125,255)"/>
  <rect x="763.64" y="34" width="4.24" height="40" fill="rgb(90,125,255)"/>
  <rect x="767.27" y="34" width="4.24" height="40" fill="rgb(90,125,255)"/>
  <rect x="770.91" y="34" width="4.24" height="40" fill="rgb(89,125,255)"/>
  <rect x="774.55" y="34" width="4.24" height="40" fill="rgb(89,124,255)"/>
  <rect x="778.18" y="34" width="4.24" height="40" fill="rgb(89,124,255)"/>
  <rect x="781.82" y="34" width="4.24" height="40" fill="rgb(89,124,255)"/>
  <rect x="785.45" y="34" width="4.24" height="40" fill="rgb(89,124,255)"/>
  <rect x="789.09" y="34" width="4.24" height="40" fill="rgb(88,124,255)"/>
  <rect x="792.73" y="34" width="4.24" height="40" fill="rgb(88,123,255)"/>
  <rect x="796.36" y="34" width="4.24" height="40" fill="rgb(88,123,255)"/>
  <rect x="800.00" y="34" width="4.24" height="40" fill="rgb(88,123,255)"/>
  <rect x="803.64" y="34" width="4.24" height="40" fill="rgb(88,123,255)"/>
  <rect x="807.27" y="34" width="4.24" height="40" fill="rgb(87,123,255)"/>
  <rect x="810.91" y="34" width="4.24" height="40" fill="rgb(87,123,255)"/>
  <rect x="814.55" y="34" width="4.24" height="40" fill="rgb(87,123,255)"/>
  <rect x="818.18" y="34" width="4.24" height="40" fill="rgb(87,123,255)"/>
  <rect x="821.82" y="34" width="4.24" height="40" fill="rgb(87,123,255)"/>
  <rect x="825.45" y="34" width="4.24" height="40" fill="rgb(87,123,255)"/>
  <rect x="829.09" y="34" width="4.24" height="40" fill="rgb(87,123,255)"/>
  <rect x="832.73" y="34" width="4.24" height="40" fill="rgb(87,123,255)"/>
  <rect x="836.36" y="34" width="4.24" height="40" fill="rgb(87,123,255)"/>
  <rect x="40" y="34" width="800" height="40" fill="none" stroke="#25375c"/>
  <line x1="74.86" y1="28" x2="74.86" y2="80" stroke="#8ea0c4" stroke-width="1"/>
  <text x="131.35" y="22" fill="#ffb454" font-size="15" font-weight="700" text-anchor="middle">M</text>
  <text x="74.86" y="96" fill="#8ea0c4" font-size="10" text-anchor="middle">2 400</text>
  <line x1="187.85" y1="28" x2="187.85" y2="80" stroke="#8ea0c4" stroke-width="1"/>
  <text x="232.27" y="22" fill="#ffb454" font-size="15" font-weight="700" text-anchor="middle">K</text>
  <text x="187.85" y="96" fill="#8ea0c4" font-size="10" text-anchor="middle">3 700</text>
  <line x1="276.69" y1="28" x2="276.69" y2="80" stroke="#8ea0c4" stroke-width="1"/>
  <text x="295.36" y="22" fill="#ffb454" font-size="15" font-weight="700" text-anchor="middle">G</text>
  <text x="276.69" y="96" fill="#8ea0c4" font-size="10" text-anchor="middle">5 200</text>
  <line x1="314.04" y1="28" x2="314.04" y2="80" stroke="#8ea0c4" stroke-width="1"/>
  <text x="343.16" y="22" fill="#ffb454" font-size="15" font-weight="700" text-anchor="middle">F</text>
  <text x="314.04" y="96" fill="#8ea0c4" font-size="10" text-anchor="middle">6 000</text>
  <line x1="372.29" y1="28" x2="372.29" y2="80" stroke="#8ea0c4" stroke-width="1"/>
  <text x="409.84" y="22" fill="#ffb454" font-size="15" font-weight="700" text-anchor="middle">A</text>
  <text x="372.29" y="96" fill="#8ea0c4" font-size="10" text-anchor="middle">7 500</text>
  <line x1="447.38" y1="28" x2="447.38" y2="80" stroke="#8ea0c4" stroke-width="1"/>
  <text x="590.77" y="22" fill="#ffb454" font-size="15" font-weight="700" text-anchor="middle">B</text>
  <text x="447.38" y="96" fill="#8ea0c4" font-size="10" text-anchor="middle">10 000</text>
  <line x1="734.16" y1="28" x2="734.16" y2="80" stroke="#8ea0c4" stroke-width="1"/>
  <text x="787.08" y="22" fill="#ffb454" font-size="15" font-weight="700" text-anchor="middle">O</text>
  <text x="734.16" y="96" fill="#8ea0c4" font-size="10" text-anchor="middle">30 000</text>
  <line x1="840.00" y1="28" x2="840.00" y2="80" stroke="#8ea0c4" stroke-width="1"/>
  <text x="840.00" y="96" fill="#8ea0c4" font-size="10" text-anchor="middle">45 000</text>
  <text x="40" y="120" fill="#5d6f92" font-size="11">température effective (K), échelle logarithmique</text>
  <text x="840" y="120" fill="#5d6f92" font-size="11" text-anchor="end">classes spectrales de la séquence principale</text>
</svg>
